PathFileType	4	(X/Y/Z)	C:/Users/Rosti/Documents/GitHub/TechForParalysis/Code/Model/04122019 - Marker Volunteer01/Rosti Data/New Session 103.trc	
DataRate	CameraRate	NumFrames	NumMarkers	Units	OrigDataRate	OrigDataStartFrame	OrigNumFrames	
100.00	100.00	9	14	mm	100.00	156	620	
Frame#	Time	C7			PX			T8			IJ			SC			AC			AI			TS			AA			GH			LE			ME			US			RS			
		X1	Y1	Z1	X2	Y2	Z2	X3	Y3	Z3	X4	Y4	Z4	X5	Y5	Z5	X6	Y6	Z6	X7	Y7	Z7	X8	Y8	Z8	X9	Y9	Z9	X10	Y10	Z10	X11	Y11	Z11	X12	Y12	Z12	X13	Y13	Z13	X14	Y14	Z14	

156	1.550	701.51447	13.21518	1534.20349	465.46494	-20.39326	1293.86633	767.07574	8.97061	1318.61890	536.01855	-15.81889	1435.29895	540.29156	9.60106	1442.71643	603.29529	159.10655	1474.22595	734.90576	94.52032	1453.59277	766.19971	91.60736	1335.19470	671.57806	209.03038	1427.65759	630.98145	220.59341	1440.70508	553.11877	253.54123	1150.35583	517.15607	167.75159	1133.02588	430.42731	284.95935	897.76410	420.43158	351.96866	934.45599 
157	1.560	701.52734	13.18597	1534.19580	465.43829	-20.39493	1293.89819	767.07721	8.94150	1318.61475	536.02209	-15.82888	1435.31287	540.29034	9.59872	1442.73657	603.30560	159.08325	1474.23193	734.92169	94.48919	1453.58240	766.20856	91.58456	1335.17761	671.59760	209.00529	1427.65247	630.99969	220.57358	1440.70410	553.11969	253.51599	1150.35522	517.16199	167.76656	1133.01563	430.43188	284.97772	897.75964	420.44547	351.99533	934.46466 
158	1.570	701.53876	13.15995	1534.17932	465.41479	-20.39879	1293.92859	767.06824	8.91255	1318.60547	536.03033	-15.83563	1435.32947	540.29437	9.58559	1442.75562	603.31720	159.06644	1474.23169	734.93951	94.45995	1453.56482	766.21423	91.56044	1335.15149	671.61200	208.97646	1427.63525	631.01099	220.55934	1440.69519	553.11877	253.48631	1150.34521	517.22522	167.78355	1133.00513	430.44046	284.99081	897.74725	420.46136	352.01483	934.46552 
159	1.580	701.54913	13.13784	1534.15759	465.40070	-20.40420	1293.95227	767.04926	8.88423	1318.59192	536.04242	-15.84036	1435.34827	540.30542	9.56858	1442.76843	603.33441	159.05727	1474.22815	734.95844	94.43887	1453.54150	766.21912	91.53818	1335.12354	671.62634	208.95000	1427.60938	631.02197	220.55278	1440.68201	553.11725	253.46445	1150.33081	517.31714	167.79630	1133.00024	430.43863	284.99594	897.73761	420.47946	352.02884	934.46271 
160	1.590	701.55988	13.11986	1534.13525	465.39709	-20.41116	1293.96948	767.02173	8.85716	1318.57507	536.05750	-15.84458	1435.36841	540.32281	9.55312	1442.77100	603.35779	159.05318	1474.22449	734.97723	94.42611	1453.51697	766.22424	91.51949	1335.09961	671.64423	208.93015	1427.58533	631.03680	220.55087	1440.66809	553.11719	253.45558	1150.31934	517.41937	167.79633	1133.00476	430.41989	284.98969	897.73907	420.49463	352.03799	934.46228 
161	1.600	701.57275	13.10538	1534.11633	465.39798	-20.41918	1293.98474	766.98810	8.83201	1318.55591	536.07477	-15.84961	1435.38940	540.34344	9.54368	1442.76453	603.38434	159.05040	1474.22412	734.99414	94.41693	1453.49829	766.22809	91.50298	1335.08228	671.66785	208.91890	1427.57556	631.05396	220.54446	1440.65649	553.12000	253.45560	1150.31750	517.51575	167.77925	1133.01990	430.39175	284.97729	897.75769	420.50122	352.04172	934.47107 
162	1.610	701.58984	13.09278	1534.10437	465.39365	-20.42615	1294.00415	766.95203	8.80938	1318.53552	536.09326	-15.85597	1435.41089	540.36395	9.54111	1442.75586	603.41003	159.04597	1474.23022	735.00873	94.40676	1453.49109	766.22943	91.48627	1335.07092	671.69653	208.91568	1427.58496	631.07190	220.52760	1440.65295	553.12488	253.45876	1150.32886	517.58600	167.74866	1133.04443	430.36420	284.96826	897.79266	420.49719	352.03888	934.49249 
163	1.620	701.61322	13.08039	1534.10095	465.38068	-20.43360	1294.02954	766.91785	8.78971	1318.51489	536.11230	-15.86292	1435.43311	540.38232	9.54145	1442.75476	603.43243	159.03889	1474.24280	735.02240	94.39398	1453.49487	766.22980	91.46812	1335.06421	671.72662	208.91490	1427.60681	631.09216	220.50377	1440.66052	553.12939	253.46371	1150.35242	517.61792	167.71434	1133.07336	430.34006	284.96481	897.83502	420.48459	352.03003	934.52350 
164	1.630	701.64215	13.06839	1534.10278	465.36429	-20.44679	1294.05664	766.89026	8.77322	1318.49500	536.13141	-15.86849	1435.45569	540.39832	9.53973	1442.76477	603.45142	159.02983	1474.25659	735.03723	94.37967	1453.50281	766.23444	91.44892	1335.06079	671.75446	208.91071	1427.62769	631.11658	220.48354	1440.67603	553.13080	253.47174	1150.38098	517.61804	167.68829	1133.09912	430.31293	284.95901	897.87042	420.46869	352.01736	934.55487 
